<svg width="196" height="194" viewBox="0 0 196 194" fill="none" xmlns="http://www.w3.org/2000/svg">
<path d="M0 131C0 96.2061 28.2061 68 63 68H126V131C126 165.794 97.7939 194 63 194C28.2061 194 0 165.794 0 131Z" fill="#33D9B2"/>
<path d="M54 111H52C46 111 44 114.58 44 119V121V149C44 150.66 45.88 151.6 47.2 150.6L50.62 148.04C51.42 147.44 52.54 147.52 53.26 148.24L56.58 151.58C57.36 152.36 58.64 152.36 59.42 151.58L62.78 148.22C63.48 147.52 64.6 147.44 65.38 148.04L68.8 150.6C70.12 151.58 72 150.64 72 149V115C72 112.8 73.8 111 76 111H54ZM62.5 134.5H53.5C52.68 134.5 52 133.82 52 133C52 132.18 52.68 131.5 53.5 131.5H62.5C63.32 131.5 64 132.18 64 133C64 133.82 63.32 134.5 62.5 134.5ZM64 126.5H52C51.18 126.5 50.5 125.82 50.5 125C50.5 124.18 51.18 123.5 52 123.5H64C64.82 123.5 65.5 124.18 65.5 125C65.5 125.82 64.82 126.5 64 126.5Z" fill="white"/>
<path d="M76.02 111V114C77.34 114 78.6 114.54 79.52 115.44C80.48 116.42 81 117.68 81 119V123.84C81 125.32 80.34 126 78.84 126H75V115.02C75 114.46 75.46 114 76.02 114V111ZM76.02 111C73.8 111 72 112.8 72 115.02V129H78.84C82 129 84 127 84 123.84V119C84 116.8 83.1 114.8 81.66 113.34C80.2 111.9 78.22 111.02 76.02 111C76.04 111 76.02 111 76.02 111Z" fill="white"/>
<g filter="url(#filter0_f_120_3)">
<circle cx="102" cy="94" r="24" fill="white"/>
</g>
<defs>
<filter id="filter0_f_120_3" x="8" y="0" width="188" height="188" filterUnits="userSpaceOnUse" color-interpolation-filters="sRGB">
<feFlood flood-opacity="0" result="BackgroundImageFix"/>
<feBlend mode="normal" in="SourceGraphic" in2="BackgroundImageFix" result="shape"/>
<feGaussianBlur stdDeviation="35" result="effect1_foregroundBlur_120_3"/>
</filter>
</defs>
</svg>
