<svg width="196" height="194" viewBox="0 0 196 194" fill="none" xmlns="http://www.w3.org/2000/svg">
<path d="M0 131C0 96.2061 28.2061 68 63 68H126V131C126 165.794 97.7939 194 63 194C28.2061 194 0 165.794 0 131Z" fill="#33D9B2"/>
<path d="M76.0796 115.24L65.0796 111.12C63.9396 110.7 62.0796 110.7 60.9396 111.12L49.9396 115.24C47.8196 116.04 46.0996 118.52 46.0996 120.78V136.98C46.0996 138.6 47.1596 140.74 48.4596 141.7L59.4596 149.92C61.3996 151.38 64.5796 151.38 66.5196 149.92L77.5196 141.7C78.8196 140.72 79.8796 138.6 79.8796 136.98V120.78C79.8996 118.52 78.1796 116.04 76.0796 115.24ZM69.9596 126.44L61.3596 135.04C61.0596 135.34 60.6796 135.48 60.2996 135.48C59.9196 135.48 59.5396 135.34 59.2396 135.04L56.0396 131.8C55.4596 131.22 55.4596 130.26 56.0396 129.68C56.6196 129.1 57.5796 129.1 58.1596 129.68L60.3196 131.84L67.8596 124.3C68.4396 123.72 69.3996 123.72 69.9796 124.3C70.5596 124.88 70.5596 125.86 69.9596 126.44Z" fill="white"/>
<g filter="url(#filter0_f_120_5)">
<circle cx="99.8488" cy="95.8488" r="25.8488" fill="white"/>
</g>
<defs>
<filter id="filter0_f_120_5" x="4" y="0" width="191.698" height="191.698" filterUnits="userSpaceOnUse" color-interpolation-filters="sRGB">
<feFlood flood-opacity="0" result="BackgroundImageFix"/>
<feBlend mode="normal" in="SourceGraphic" in2="BackgroundImageFix" result="shape"/>
<feGaussianBlur stdDeviation="35" result="effect1_foregroundBlur_120_5"/>
</filter>
</defs>
</svg>
